HIERARCHY
ROOT SpineBase
{
  OFFSET 0.000000 0.000000 0.000000
  CHANNELS 6 Xposition Yposition Zposition Zrotation Xrotation Yrotation
  JOINT SpineMid
  {
    OFFSET 0.000000 28.624749 0.000000
    CHANNELS 3 Zrotation Xrotation Yrotation
    JOINT SpineShoulder
    {
      OFFSET 0.078883 21.316017 -0.399562
      CHANNELS 3 Zrotation Xrotation Yrotation
      JOINT Neck
      {
        OFFSET 0.053522 7.071870 -0.368846
        CHANNELS 3 Zrotation Xrotation Yrotation
        JOINT Head
        {
          OFFSET 4.600731 13.470291 -1.340796
          CHANNELS 3 Zrotation Xrotation Yrotation
          End Site
          {
            OFFSET 0 0 0
          }
        }
      }
      JOINT ShoulderLeft
      {
        OFFSET -10.613751 -2.073791 -10.658535
        CHANNELS 3 Zrotation Xrotation Yrotation
        JOINT ElbowLeft
        {
          OFFSET -3.520063 -25.368068 -5.446715
          CHANNELS 3 Zrotation Xrotation Yrotation
          JOINT WristLeft
          {
            OFFSET 3.767483 -20.364544 -2.896297
            CHANNELS 3 Zrotation Xrotation Yrotation
            JOINT HandLeft
            {
              OFFSET 1.108151 -5.302546 0.561520
              CHANNELS 3 Zrotation Xrotation Yrotation
              JOINT HandTipLeft
              {
                OFFSET 1.503779 -6.418214 0.192245
                CHANNELS 3 Zrotation Xrotation Yrotation
                End Site
                {
                  OFFSET 0 0 0
                }
              }
              JOINT ThumbLeft
              {
                OFFSET 3.291224 0.606841 -1.579096
                CHANNELS 3 Zrotation Xrotation Yrotation
                End Site
                {
                  OFFSET 0 0 0
                }
              }
            }
          }
        }
      }
      JOINT ShoulderRight
      {
        OFFSET 12.851393 -3.974333 9.917125
        CHANNELS 3 Zrotation Xrotation Yrotation
        JOINT ElbowRight
        {
          OFFSET 0.689259 -25.158344 8.048827
          CHANNELS 3 Zrotation Xrotation Yrotation
          JOINT WristRight
          {
            OFFSET 0.551037 -24.152081 2.088848
            CHANNELS 3 Zrotation Xrotation Yrotation
            JOINT HandRight
            {
              OFFSET -0.805724 -4.763907 0.327287
              CHANNELS 3 Zrotation Xrotation Yrotation
              JOINT HandTipRight
              {
                OFFSET -1.048147 -4.228040 1.712191
                CHANNELS 3 Zrotation Xrotation Yrotation
                End Site
                {
                  OFFSET 0 0 0
                }
              }
              JOINT ThumbRight
              {
                OFFSET 2.635337 -0.495955 -0.279803
                CHANNELS 3 Zrotation Xrotation Yrotation
                End Site
                {
                  OFFSET 0 0 0
                }
              }
            }
          }
        }
      }
    }
  }
  JOINT HipLeft
  {
    OFFSET -5.059200 1.096408 -6.720276
    CHANNELS 3 Zrotation Xrotation Yrotation
    JOINT KneeLeft
    {
      OFFSET -7.447732 -25.529794 0.341599
      CHANNELS 3 Zrotation Xrotation Yrotation
      JOINT AnkleLeft
      {
        OFFSET -6.889309 -34.922846 4.976439
        CHANNELS 3 Zrotation Xrotation Yrotation
        JOINT FootLeft
        {
          OFFSET 6.714513 -3.844751 -10.211990
          CHANNELS 3 Zrotation Xrotation Yrotation
          End Site
          {
            OFFSET 0 0 0
          }
        }
      }
    }
  }
  JOINT HipRight
  {
    OFFSET 5.771888 0.454870 1.058642
    CHANNELS 3 Zrotation Xrotation Yrotation
    JOINT KneeRight
    {
      OFFSET -4.637989 -27.784308 6.100570
      CHANNELS 3 Zrotation Xrotation Yrotation
      JOINT AnkleRight
      {
        OFFSET -7.392188 -31.095447 3.887818
        CHANNELS 3 Zrotation Xrotation Yrotation
        JOINT FootRight
        {
          OFFSET 3.421940 -7.481203 -4.022487
          CHANNELS 3 Zrotation Xrotation Yrotation
          End Site
          {
            OFFSET 0 0 0
          }
        }
      }
    }
  }
}
MOTION
Frames: 7
Frame Time: 0.033333
-38.898843 66.020909 348.217964 -17.848640 -20.278064 7.444493 1.290534 0.167088 -11.053319 0.137821 0.927509 -0.348580 -5.522283 9.092927 4.470925 0.000000 0.000000 0.000000 -9.152777 -12.594018 9.941654 17.725463 24.000326 -10.894255 18.158459 -2.606623 -2.381005 -26.559170 12.430615 5.710569 0.000000 0.000000 0.000000 0.000000 0.000000 0.000000 97.042704 39.441467 -23.342239 9.947094 1.026914 -15.463649 14.995073 3.254881 -9.929833 -8.681802 12.438546 12.625127 0.000000 0.000000 0.000000 0.000000 0.000000 0.000000 26.652149 18.786838 -16.390128 4.919650 7.750967 -0.421438 -23.873607 -17.105206 35.005066 0.000000 0.000000 0.000000 35.146748 21.347606 -17.185731 -9.053659 -12.430760 -0.119110 -32.458286 37.035741 38.406748 0.000000 0.000000 0.000000
-38.888710 66.427682 347.191732 -17.105504 -17.999901 7.282287 1.535487 0.539660 -10.351491 0.142671 0.965952 -0.332741 -5.479593 8.486361 3.534769 0.000000 0.000000 0.000000 -9.751030 -13.671861 9.196586 14.712950 19.975654 -10.101211 17.188753 25.142333 1.632252 -24.879985 -10.366396 -9.330940 0.000000 0.000000 0.000000 0.000000 0.000000 0.000000 94.213012 38.040806 -18.472275 6.962355 4.008109 -19.370623 15.173463 3.691090 -10.055130 -8.325446 9.818645 14.813759 0.000000 0.000000 0.000000 0.000000 0.000000 0.000000 24.931437 16.099975 -14.603276 4.828977 7.651624 -0.547905 -22.851266 -14.732340 34.077857 0.000000 0.000000 0.000000 32.491009 18.712793 -15.009174 -7.756403 -11.349921 0.148310 -34.636900 33.722412 38.185304 0.000000 0.000000 0.000000
-38.792670 66.831229 346.374819 -16.290572 -15.998572 6.359840 1.625687 0.991802 -8.931581 0.229882 0.972155 -0.328324 -5.004265 8.125591 2.630260 0.000000 0.000000 0.000000 -11.246259 -14.601011 8.705063 14.649807 18.248961 -9.938430 10.920084 33.419978 4.906238 -21.784871 -18.966951 -13.773583 0.000000 0.000000 0.000000 0.000000 0.000000 0.000000 89.379573 37.883181 -14.737443 6.418848 5.539452 -20.016270 11.151530 8.211357 -17.761456 -4.000888 14.118420 7.617204 0.000000 0.000000 0.000000 0.000000 0.000000 0.000000 23.124742 14.464626 -12.489165 4.891784 6.833589 -0.383532 -21.865871 -12.318175 32.836114 0.000000 0.000000 0.000000 29.594313 16.976580 -12.570571 -6.254902 -10.618215 0.479783 -34.532884 33.942718 37.633226 0.000000 0.000000 0.000000
-38.736423 67.170802 345.709468 -15.680986 -14.064291 5.495808 1.614890 1.143797 -7.673063 0.274320 0.827791 -0.339046 -4.691464 8.035144 1.911815 0.000000 0.000000 0.000000 -11.352545 -14.456684 8.121795 14.510063 18.291244 -9.052448 6.066540 32.830824 6.232079 -17.218459 -21.957195 -13.532845 0.000000 0.000000 0.000000 0.000000 0.000000 0.000000 83.502926 38.871603 -12.492567 7.139741 7.356364 -19.504275 9.500468 10.815010 -21.206096 -1.410249 15.487592 5.780189 0.000000 0.000000 0.000000 0.000000 0.000000 0.000000 21.800486 13.029279 -10.713187 4.889114 5.781809 -0.111453 -20.958810 -10.115643 31.542524 0.000000 0.000000 0.000000 27.124481 14.672905 -10.283308 -4.996628 -9.144080 0.562745 -36.124846 31.652108 37.647946 0.000000 0.000000 0.000000
-38.636065 67.381323 345.449985 -15.192685 -12.716667 4.321715 1.358338 1.122795 -6.227162 0.261059 0.601455 -0.359837 -4.187028 8.923112 1.340031 0.000000 0.000000 0.000000 -11.203086 -13.952581 7.805794 16.617062 21.327911 -8.406281 6.704586 21.076394 3.168828 -13.814720 -15.411216 -8.399015 0.000000 0.000000 0.000000 0.000000 0.000000 0.000000 76.459357 37.481686 -9.139975 8.518528 14.684552 -22.486513 5.303175 9.085101 -20.909067 1.245761 19.151552 -1.114694 0.000000 0.000000 0.000000 0.000000 0.000000 0.000000 20.727361 12.731993 -9.121850 4.934492 4.306138 0.357756 -20.247716 -8.397740 30.456288 0.000000 0.000000 0.000000 25.001785 13.076091 -8.181401 -3.870302 -7.581530 0.533437 -36.531232 27.539398 35.733164 0.000000 0.000000 0.000000
-38.428247 67.463940 345.408630 -14.882894 -11.828393 2.896330 0.890889 0.670540 -4.663738 0.213426 0.199666 -0.406370 -3.125544 10.810091 0.930683 0.000000 0.000000 0.000000 -10.907188 -11.874671 7.896046 17.154430 20.866837 -7.898953 6.126869 17.200975 2.374653 -11.398601 -13.652531 -6.656764 0.000000 0.000000 0.000000 0.000000 0.000000 0.000000 72.072191 39.401366 -9.646397 7.167511 18.676931 -22.891838 2.309376 7.013500 -20.077826 1.848439 19.116986 -4.673045 0.000000 0.000000 0.000000 0.000000 0.000000 0.000000 19.586446 13.027178 -7.483426 5.286393 3.029511 0.796279 -19.722983 -7.352792 29.458243 0.000000 0.000000 0.000000 22.873556 12.336815 -6.260989 -2.343982 -6.486957 0.657078 -35.915342 22.372147 32.145374 0.000000 0.000000 0.000000
-38.266563 67.540209 345.370074 -14.807817 -11.042685 1.808234 0.608397 0.276603 -3.491303 0.221402 0.176799 -0.416320 -2.025806 12.669196 0.367335 0.000000 0.000000 0.000000 -11.319689 -10.605917 8.002377 18.105489 19.942838 -7.768602 6.858162 15.273123 1.982366 -11.801834 -14.050196 -6.781111 0.000000 0.000000 0.000000 0.000000 0.000000 0.000000 67.083014 41.832355 -9.890909 4.037504 21.912846 -22.465777 2.827826 3.376756 -16.350900 -0.405893 18.900961 -11.662379 0.000000 0.000000 0.000000 0.000000 0.000000 0.000000 18.835324 13.006967 -6.189279 5.567445 2.253725 1.060514 -19.245047 -6.599829 28.563653 0.000000 0.000000 0.000000 21.218354 11.174401 -4.714798 -0.999392 -5.055471 0.646503 -33.852588 17.129294 27.208100 0.000000 0.000000 0.000000
